<mxfile host="app.diagrams.net" modified="2024-03-17T17:41:23.406Z" agent="Mozilla/5.0 (Windows NT 10.0; Win64; x64) AppleWebKit/537.36 (KHTML, like Gecko) Chrome/122.0.0.0 Safari/537.36" etag="0UyAr5KRSIUwoD8n-g9z" version="24.0.7" type="github">
  <diagram name="第 1 页" id="rSjbLI-qnoq5vf5nYvKy">
    <mxGraphModel dx="979" dy="539" grid="0" gridSize="10" guides="1" tooltips="1" connect="1" arrows="1" fold="1" page="1" pageScale="1" pageWidth="827" pageHeight="1169" math="1" shadow="0">
      <root>
        <mxCell id="0" />
        <mxCell id="1" parent="0" />
        <mxCell id="fm8zSDpjn17sEwypUzex-47" style="edgeStyle=orthogonalEdgeStyle;rounded=0;orthogonalLoop=1;jettySize=auto;html=1;exitX=0.5;exitY=0;exitDx=0;exitDy=0;entryX=0.5;entryY=1;entryDx=0;entryDy=0;strokeColor=default;align=center;verticalAlign=middle;fontFamily=Helvetica;fontSize=11;fontColor=default;labelBackgroundColor=default;endArrow=blockThin;endFill=1;endSize=3;" parent="1" source="QjQi6mAfNc4KyvHt464P-5" target="fm8zSDpjn17sEwypUzex-40" edge="1">
          <mxGeometry relative="1" as="geometry" />
        </mxCell>
        <mxCell id="fm8zSDpjn17sEwypUzex-73" style="edgeStyle=orthogonalEdgeStyle;rounded=0;orthogonalLoop=1;jettySize=auto;html=1;exitX=0.5;exitY=1;exitDx=0;exitDy=0;strokeColor=default;align=center;verticalAlign=middle;fontFamily=Helvetica;fontSize=11;fontColor=default;labelBackgroundColor=default;endArrow=blockThin;endFill=1;endSize=3;entryX=0.5;entryY=1;entryDx=0;entryDy=0;" parent="1" target="QjQi6mAfNc4KyvHt464P-5" edge="1">
          <mxGeometry relative="1" as="geometry">
            <mxPoint x="273.04761904761904" y="340.3809523809523" as="sourcePoint" />
          </mxGeometry>
        </mxCell>
        <mxCell id="QjQi6mAfNc4KyvHt464P-5" value="&lt;font face=&quot;Times New Roman&quot;&gt;Norm&lt;/font&gt;" style="rounded=1;whiteSpace=wrap;html=1;fontFamily=Helvetica;fontSize=11;fontColor=default;labelBackgroundColor=default;strokeColor=default;align=center;verticalAlign=middle;" parent="1" vertex="1">
          <mxGeometry x="258" y="304" width="30" height="19" as="geometry" />
        </mxCell>
        <mxCell id="fm8zSDpjn17sEwypUzex-35" style="edgeStyle=orthogonalEdgeStyle;rounded=0;orthogonalLoop=1;jettySize=auto;html=1;exitX=0.5;exitY=0;exitDx=0;exitDy=0;entryX=0.5;entryY=1;entryDx=0;entryDy=0;strokeColor=default;align=center;verticalAlign=middle;fontFamily=Helvetica;fontSize=11;fontColor=default;labelBackgroundColor=default;endArrow=blockThin;endFill=1;endSize=3;" parent="1" source="QjQi6mAfNc4KyvHt464P-8" target="fm8zSDpjn17sEwypUzex-7" edge="1">
          <mxGeometry relative="1" as="geometry" />
        </mxCell>
        <mxCell id="fm8zSDpjn17sEwypUzex-72" style="edgeStyle=orthogonalEdgeStyle;rounded=0;orthogonalLoop=1;jettySize=auto;html=1;exitX=0.5;exitY=1;exitDx=0;exitDy=0;strokeColor=default;align=center;verticalAlign=middle;fontFamily=Helvetica;fontSize=11;fontColor=default;labelBackgroundColor=default;endArrow=blockThin;endFill=1;endSize=3;entryX=0.5;entryY=1;entryDx=0;entryDy=0;" parent="1" target="QjQi6mAfNc4KyvHt464P-8" edge="1">
          <mxGeometry relative="1" as="geometry">
            <mxPoint x="189.71428571428567" y="340.8571428571428" as="sourcePoint" />
          </mxGeometry>
        </mxCell>
        <mxCell id="QjQi6mAfNc4KyvHt464P-8" value="&lt;font face=&quot;Times New Roman&quot;&gt;Norm&lt;/font&gt;" style="rounded=1;whiteSpace=wrap;html=1;fontFamily=Helvetica;fontSize=11;fontColor=default;labelBackgroundColor=default;strokeColor=default;align=center;verticalAlign=middle;" parent="1" vertex="1">
          <mxGeometry x="174.67000000000002" y="304" width="30" height="19" as="geometry" />
        </mxCell>
        <mxCell id="QjQi6mAfNc4KyvHt464P-24" value="&lt;span style=&quot;font-family: &amp;quot;Times New Roman&amp;quot;;&quot;&gt;&lt;font style=&quot;font-size: 14px;&quot;&gt;`X_i^r`&lt;/font&gt;&lt;/span&gt;" style="text;strokeColor=none;align=center;fillColor=none;html=1;verticalAlign=middle;whiteSpace=wrap;rounded=0;" parent="1" vertex="1">
          <mxGeometry x="193.00000000000006" y="325.75" width="21.67" height="14" as="geometry" />
        </mxCell>
        <mxCell id="QjQi6mAfNc4KyvHt464P-26" value="&lt;span style=&quot;color: rgb(0, 0, 0); font-family: &amp;quot;Times New Roman&amp;quot;; font-style: normal; font-variant-ligatures: normal; font-variant-caps: normal; font-weight: 400; letter-spacing: normal; orphans: 2; text-align: center; text-indent: 0px; text-transform: none; widows: 2; word-spacing: 0px; -webkit-text-stroke-width: 0px; white-space: normal; background-color: rgb(251, 251, 251); text-decoration-thickness: initial; text-decoration-style: initial; text-decoration-color: initial; float: none; display: inline !important;&quot;&gt;&lt;font style=&quot;font-size: 14px;&quot;&gt;`X_i^d`&lt;/font&gt;&lt;/span&gt;" style="text;whiteSpace=wrap;html=1;" parent="1" vertex="1">
          <mxGeometry x="278" y="317" width="20" height="27.5" as="geometry" />
        </mxCell>
        <mxCell id="fm8zSDpjn17sEwypUzex-26" style="edgeStyle=orthogonalEdgeStyle;rounded=0;orthogonalLoop=1;jettySize=auto;html=1;exitX=0.5;exitY=0;exitDx=0;exitDy=0;entryX=0.5;entryY=1;entryDx=0;entryDy=0;strokeColor=default;align=center;verticalAlign=middle;fontFamily=Helvetica;fontSize=11;fontColor=default;labelBackgroundColor=default;endArrow=blockThin;endFill=1;endSize=3;" parent="1" source="fm8zSDpjn17sEwypUzex-3" target="fm8zSDpjn17sEwypUzex-24" edge="1">
          <mxGeometry relative="1" as="geometry" />
        </mxCell>
        <mxCell id="fm8zSDpjn17sEwypUzex-3" value="&lt;font style=&quot;font-size: 9px;&quot; face=&quot;Times New Roman&quot;&gt;(DW)Conv&lt;/font&gt;" style="rounded=1;whiteSpace=wrap;html=1;fillColor=#dae8fc;strokeColor=#6c8ebf;" parent="1" vertex="1">
          <mxGeometry x="248" y="217" width="50" height="20" as="geometry" />
        </mxCell>
        <mxCell id="fm8zSDpjn17sEwypUzex-20" style="edgeStyle=orthogonalEdgeStyle;rounded=0;orthogonalLoop=1;jettySize=auto;html=1;exitX=0.5;exitY=0;exitDx=0;exitDy=0;entryX=0.5;entryY=1;entryDx=0;entryDy=0;strokeColor=default;align=center;verticalAlign=middle;fontFamily=Helvetica;fontSize=11;fontColor=default;labelBackgroundColor=default;endArrow=blockThin;endFill=1;endSize=3;" parent="1" source="fm8zSDpjn17sEwypUzex-7" target="fm8zSDpjn17sEwypUzex-9" edge="1">
          <mxGeometry relative="1" as="geometry" />
        </mxCell>
        <mxCell id="fm8zSDpjn17sEwypUzex-7" value="&lt;font style=&quot;font-size: 9px; background-color: rgb(218, 232, 252);&quot; face=&quot;Times New Roman&quot;&gt;Conv&lt;/font&gt;&lt;span style=&quot;font-size: 9px; background-color: rgb(218, 232, 252);&quot;&gt;&amp;nbsp;1`\times`1&lt;/span&gt;" style="rounded=1;whiteSpace=wrap;html=1;fillColor=#dae8fc;strokeColor=#6c8ebf;" parent="1" vertex="1">
          <mxGeometry x="166.51" y="257.5" width="46.33" height="19.5" as="geometry" />
        </mxCell>
        <mxCell id="fm8zSDpjn17sEwypUzex-65" style="edgeStyle=orthogonalEdgeStyle;rounded=0;orthogonalLoop=1;jettySize=auto;html=1;strokeColor=default;align=center;verticalAlign=middle;fontFamily=Helvetica;fontSize=11;fontColor=default;labelBackgroundColor=default;endArrow=blockThin;endFill=1;endSize=3;entryX=0;entryY=0.5;entryDx=0;entryDy=0;" parent="1" source="fm8zSDpjn17sEwypUzex-9" target="fm8zSDpjn17sEwypUzex-67" edge="1">
          <mxGeometry relative="1" as="geometry">
            <mxPoint x="189.67000000000007" y="65.39999999999998" as="targetPoint" />
          </mxGeometry>
        </mxCell>
        <mxCell id="fm8zSDpjn17sEwypUzex-9" value="&lt;font style=&quot;font-size: 9px;&quot; face=&quot;Times New Roman&quot;&gt;(DW)Conv&lt;/font&gt;" style="rounded=1;whiteSpace=wrap;html=1;fillColor=#dae8fc;strokeColor=#6c8ebf;" parent="1" vertex="1">
          <mxGeometry x="164.67000000000002" y="133" width="50" height="20" as="geometry" />
        </mxCell>
        <mxCell id="fm8zSDpjn17sEwypUzex-14" value="&lt;font style=&quot;font-size: 9px;&quot; face=&quot;Times New Roman&quot;&gt;(DW)Conv&lt;/font&gt;" style="rounded=1;whiteSpace=wrap;html=1;fillColor=#dae8fc;strokeColor=#6c8ebf;" parent="1" vertex="1">
          <mxGeometry x="310" y="217" width="50" height="20" as="geometry" />
        </mxCell>
        <mxCell id="fm8zSDpjn17sEwypUzex-25" value="" style="edgeStyle=orthogonalEdgeStyle;rounded=0;orthogonalLoop=1;jettySize=auto;html=1;strokeColor=default;align=center;verticalAlign=middle;fontFamily=Helvetica;fontSize=11;fontColor=default;labelBackgroundColor=default;endArrow=blockThin;endFill=1;endSize=3;" parent="1" source="fm8zSDpjn17sEwypUzex-14" target="fm8zSDpjn17sEwypUzex-24" edge="1">
          <mxGeometry relative="1" as="geometry">
            <Array as="points">
              <mxPoint x="335" y="193" />
            </Array>
          </mxGeometry>
        </mxCell>
        <mxCell id="fm8zSDpjn17sEwypUzex-45" style="edgeStyle=orthogonalEdgeStyle;rounded=0;orthogonalLoop=1;jettySize=auto;html=1;exitX=1;exitY=0.5;exitDx=0;exitDy=0;strokeColor=default;align=center;verticalAlign=middle;fontFamily=Helvetica;fontSize=11;fontColor=default;labelBackgroundColor=default;endArrow=blockThin;endFill=1;endSize=3;" parent="1" source="fm8zSDpjn17sEwypUzex-40" target="fm8zSDpjn17sEwypUzex-14" edge="1">
          <mxGeometry relative="1" as="geometry" />
        </mxCell>
        <mxCell id="fm8zSDpjn17sEwypUzex-46" style="edgeStyle=orthogonalEdgeStyle;rounded=0;orthogonalLoop=1;jettySize=auto;html=1;exitX=0.5;exitY=0;exitDx=0;exitDy=0;strokeColor=default;align=center;verticalAlign=middle;fontFamily=Helvetica;fontSize=11;fontColor=default;labelBackgroundColor=default;endArrow=blockThin;endFill=1;endSize=3;" parent="1" source="fm8zSDpjn17sEwypUzex-40" target="fm8zSDpjn17sEwypUzex-3" edge="1">
          <mxGeometry relative="1" as="geometry" />
        </mxCell>
        <mxCell id="fm8zSDpjn17sEwypUzex-40" value="&lt;font style=&quot;font-size: 9px; background-color: rgb(218, 232, 252);&quot; face=&quot;Times New Roman&quot;&gt;Conv&lt;/font&gt;&lt;span style=&quot;font-size: 9px; background-color: rgb(218, 232, 252);&quot;&gt;&amp;nbsp;1`\times`1&lt;/span&gt;" style="rounded=1;whiteSpace=wrap;html=1;fillColor=#dae8fc;strokeColor=#6c8ebf;" parent="1" vertex="1">
          <mxGeometry x="249.84" y="257.5" width="46.33" height="19.5" as="geometry" />
        </mxCell>
        <mxCell id="fm8zSDpjn17sEwypUzex-60" style="edgeStyle=orthogonalEdgeStyle;rounded=0;orthogonalLoop=1;jettySize=auto;html=1;exitX=0.5;exitY=0;exitDx=0;exitDy=0;entryX=0.5;entryY=1;entryDx=0;entryDy=0;strokeColor=default;align=center;verticalAlign=middle;fontFamily=Helvetica;fontSize=11;fontColor=default;labelBackgroundColor=default;endArrow=blockThin;endFill=1;endSize=3;" parent="1" source="fm8zSDpjn17sEwypUzex-48" target="fm8zSDpjn17sEwypUzex-57" edge="1">
          <mxGeometry relative="1" as="geometry" />
        </mxCell>
        <mxCell id="fm8zSDpjn17sEwypUzex-48" value="&lt;font style=&quot;font-size: 9px;&quot;&gt;&lt;font style=&quot;background-color: rgb(218, 232, 252);&quot; face=&quot;Times New Roman&quot;&gt;Conv&lt;/font&gt;&lt;span style=&quot;background-color: rgb(218, 232, 252);&quot;&gt;&amp;nbsp;1`\times`1&lt;/span&gt;&lt;/font&gt;" style="rounded=1;whiteSpace=wrap;html=1;fillColor=#dae8fc;strokeColor=#6c8ebf;" parent="1" vertex="1">
          <mxGeometry x="249.84" y="153" width="46.33" height="18.5" as="geometry" />
        </mxCell>
        <mxCell id="fm8zSDpjn17sEwypUzex-56" style="edgeStyle=orthogonalEdgeStyle;rounded=0;orthogonalLoop=1;jettySize=auto;html=1;exitX=0.5;exitY=0;exitDx=0;exitDy=0;entryX=0.5;entryY=1;entryDx=0;entryDy=0;strokeColor=default;align=center;verticalAlign=middle;fontFamily=Helvetica;fontSize=11;fontColor=default;labelBackgroundColor=default;endArrow=blockThin;endFill=1;endSize=3;" parent="1" source="fm8zSDpjn17sEwypUzex-24" target="fm8zSDpjn17sEwypUzex-48" edge="1">
          <mxGeometry relative="1" as="geometry" />
        </mxCell>
        <mxCell id="fm8zSDpjn17sEwypUzex-24" value="" style="ellipse;whiteSpace=wrap;html=1;aspect=fixed;fontFamily=Helvetica;fontSize=11;fontColor=default;labelBackgroundColor=default;" parent="1" vertex="1">
          <mxGeometry x="264.25" y="184.25" width="17.5" height="17.5" as="geometry" />
        </mxCell>
        <mxCell id="fm8zSDpjn17sEwypUzex-37" value="" style="shape=waypoint;sketch=0;fillStyle=solid;size=6;pointerEvents=1;points=[];fillColor=none;resizable=0;rotatable=0;perimeter=centerPerimeter;snapToPoint=1;fontFamily=Helvetica;fontSize=11;fontColor=default;labelBackgroundColor=default;" parent="1" vertex="1">
          <mxGeometry x="263.01" y="183" width="20" height="20" as="geometry" />
        </mxCell>
        <mxCell id="fm8zSDpjn17sEwypUzex-61" style="edgeStyle=orthogonalEdgeStyle;rounded=0;orthogonalLoop=1;jettySize=auto;html=1;exitX=0.5;exitY=0;exitDx=0;exitDy=0;entryX=0.5;entryY=1;entryDx=0;entryDy=0;strokeColor=default;align=center;verticalAlign=middle;fontFamily=Helvetica;fontSize=11;fontColor=default;labelBackgroundColor=default;endArrow=blockThin;endFill=1;endSize=3;" parent="1" source="fm8zSDpjn17sEwypUzex-57" target="fm8zSDpjn17sEwypUzex-59" edge="1">
          <mxGeometry relative="1" as="geometry" />
        </mxCell>
        <mxCell id="fm8zSDpjn17sEwypUzex-57" value="&lt;font style=&quot;font-size: 9px;&quot; face=&quot;Times New Roman&quot;&gt;&lt;span style=&quot;background-color: rgb(218, 232, 252);&quot;&gt;Swish&lt;/span&gt;&lt;/font&gt;" style="rounded=1;whiteSpace=wrap;html=1;fillColor=#dae8fc;strokeColor=#6c8ebf;" parent="1" vertex="1">
          <mxGeometry x="249.84" y="121" width="46.33" height="18.5" as="geometry" />
        </mxCell>
        <mxCell id="fm8zSDpjn17sEwypUzex-63" style="edgeStyle=orthogonalEdgeStyle;rounded=0;orthogonalLoop=1;jettySize=auto;html=1;exitX=0.5;exitY=0;exitDx=0;exitDy=0;entryX=0.5;entryY=1;entryDx=0;entryDy=0;strokeColor=default;align=center;verticalAlign=middle;fontFamily=Helvetica;fontSize=11;fontColor=default;labelBackgroundColor=default;endArrow=blockThin;endFill=1;endSize=3;" parent="1" source="fm8zSDpjn17sEwypUzex-59" target="fm8zSDpjn17sEwypUzex-62" edge="1">
          <mxGeometry relative="1" as="geometry" />
        </mxCell>
        <mxCell id="fm8zSDpjn17sEwypUzex-59" value="&lt;font style=&quot;font-size: 9px;&quot;&gt;&lt;font style=&quot;background-color: rgb(218, 232, 252);&quot; face=&quot;Times New Roman&quot;&gt;Conv&lt;/font&gt;&lt;span style=&quot;background-color: rgb(218, 232, 252);&quot;&gt;&amp;nbsp;1`\times`1&lt;/span&gt;&lt;/font&gt;" style="rounded=1;whiteSpace=wrap;html=1;fillColor=#dae8fc;strokeColor=#6c8ebf;" parent="1" vertex="1">
          <mxGeometry x="249.84000000000003" y="89" width="46.33" height="18.5" as="geometry" />
        </mxCell>
        <mxCell id="fm8zSDpjn17sEwypUzex-69" style="edgeStyle=orthogonalEdgeStyle;rounded=0;orthogonalLoop=1;jettySize=auto;html=1;exitX=0;exitY=0.5;exitDx=0;exitDy=0;entryX=1;entryY=0.5;entryDx=0;entryDy=0;strokeColor=default;align=center;verticalAlign=middle;fontFamily=Helvetica;fontSize=11;fontColor=default;labelBackgroundColor=default;endArrow=blockThin;endFill=1;endSize=3;" parent="1" source="fm8zSDpjn17sEwypUzex-62" target="fm8zSDpjn17sEwypUzex-67" edge="1">
          <mxGeometry relative="1" as="geometry" />
        </mxCell>
        <mxCell id="fm8zSDpjn17sEwypUzex-62" value="&lt;font style=&quot;font-size: 9px;&quot; face=&quot;Times New Roman&quot;&gt;&lt;span style=&quot;background-color: rgb(218, 232, 252);&quot;&gt;Tanh&lt;/span&gt;&lt;/font&gt;" style="rounded=1;whiteSpace=wrap;html=1;fillColor=#dae8fc;strokeColor=#6c8ebf;" parent="1" vertex="1">
          <mxGeometry x="249.85000000000002" y="59" width="46.33" height="18.5" as="geometry" />
        </mxCell>
        <mxCell id="fm8zSDpjn17sEwypUzex-71" style="edgeStyle=orthogonalEdgeStyle;rounded=0;orthogonalLoop=1;jettySize=auto;html=1;exitX=0.5;exitY=0;exitDx=0;exitDy=0;strokeColor=default;align=center;verticalAlign=middle;fontFamily=Helvetica;fontSize=11;fontColor=default;labelBackgroundColor=default;endArrow=blockThin;endFill=1;endSize=3;" parent="1" source="fm8zSDpjn17sEwypUzex-67" edge="1">
          <mxGeometry relative="1" as="geometry">
            <mxPoint x="223.04761904761904" y="28.952380952380963" as="targetPoint" />
          </mxGeometry>
        </mxCell>
        <mxCell id="fm8zSDpjn17sEwypUzex-67" value="" style="ellipse;whiteSpace=wrap;html=1;aspect=fixed;fontFamily=Helvetica;fontSize=11;fontColor=default;labelBackgroundColor=default;" parent="1" vertex="1">
          <mxGeometry x="214.07999999999998" y="58.75" width="17.5" height="17.5" as="geometry" />
        </mxCell>
        <mxCell id="fm8zSDpjn17sEwypUzex-70" value="" style="shape=waypoint;sketch=0;fillStyle=solid;size=6;pointerEvents=1;points=[];fillColor=none;resizable=0;rotatable=0;perimeter=centerPerimeter;snapToPoint=1;fontFamily=Helvetica;fontSize=11;fontColor=default;labelBackgroundColor=default;" parent="1" vertex="1">
          <mxGeometry x="212.84" y="57.5" width="20" height="20" as="geometry" />
        </mxCell>
        <mxCell id="fm8zSDpjn17sEwypUzex-100" value="" style="rounded=1;whiteSpace=wrap;html=1;fontFamily=Helvetica;fontSize=11;labelBackgroundColor=default;dashed=1;fillColor=none;strokeColor=#7999c7;strokeWidth=3;" parent="1" vertex="1">
          <mxGeometry x="121" y="49" width="242" height="247" as="geometry" />
        </mxCell>
        <mxCell id="iThb-aG2Lzb_twxAO-k0-1" style="edgeStyle=orthogonalEdgeStyle;rounded=0;orthogonalLoop=1;jettySize=auto;html=1;exitX=0.5;exitY=0;exitDx=0;exitDy=0;entryX=0.5;entryY=1;entryDx=0;entryDy=0;strokeColor=default;align=center;verticalAlign=middle;fontFamily=Helvetica;fontSize=11;fontColor=default;labelBackgroundColor=default;endArrow=blockThin;endFill=1;endSize=3;" edge="1" parent="1" source="iThb-aG2Lzb_twxAO-k0-3" target="iThb-aG2Lzb_twxAO-k0-19">
          <mxGeometry relative="1" as="geometry" />
        </mxCell>
        <mxCell id="iThb-aG2Lzb_twxAO-k0-2" style="edgeStyle=orthogonalEdgeStyle;rounded=0;orthogonalLoop=1;jettySize=auto;html=1;exitX=0.5;exitY=1;exitDx=0;exitDy=0;strokeColor=default;align=center;verticalAlign=middle;fontFamily=Helvetica;fontSize=11;fontColor=default;labelBackgroundColor=default;endArrow=blockThin;endFill=1;endSize=3;entryX=0.5;entryY=1;entryDx=0;entryDy=0;" edge="1" parent="1" target="iThb-aG2Lzb_twxAO-k0-3">
          <mxGeometry relative="1" as="geometry">
            <mxPoint x="547.047619047619" y="338.43095238095225" as="sourcePoint" />
          </mxGeometry>
        </mxCell>
        <mxCell id="iThb-aG2Lzb_twxAO-k0-3" value="&lt;font face=&quot;Times New Roman&quot;&gt;Norm&lt;/font&gt;" style="rounded=1;whiteSpace=wrap;html=1;fontFamily=Helvetica;fontSize=11;fontColor=default;labelBackgroundColor=default;strokeColor=default;align=center;verticalAlign=middle;" vertex="1" parent="1">
          <mxGeometry x="532" y="302.04999999999995" width="30" height="19" as="geometry" />
        </mxCell>
        <mxCell id="iThb-aG2Lzb_twxAO-k0-4" style="edgeStyle=orthogonalEdgeStyle;rounded=0;orthogonalLoop=1;jettySize=auto;html=1;exitX=0.5;exitY=0;exitDx=0;exitDy=0;entryX=0.5;entryY=1;entryDx=0;entryDy=0;strokeColor=default;align=center;verticalAlign=middle;fontFamily=Helvetica;fontSize=11;fontColor=default;labelBackgroundColor=default;endArrow=blockThin;endFill=1;endSize=3;" edge="1" parent="1" source="iThb-aG2Lzb_twxAO-k0-6" target="iThb-aG2Lzb_twxAO-k0-12">
          <mxGeometry relative="1" as="geometry" />
        </mxCell>
        <mxCell id="iThb-aG2Lzb_twxAO-k0-5" style="edgeStyle=orthogonalEdgeStyle;rounded=0;orthogonalLoop=1;jettySize=auto;html=1;exitX=0.5;exitY=1;exitDx=0;exitDy=0;strokeColor=default;align=center;verticalAlign=middle;fontFamily=Helvetica;fontSize=11;fontColor=default;labelBackgroundColor=default;endArrow=blockThin;endFill=1;endSize=3;entryX=0.5;entryY=1;entryDx=0;entryDy=0;" edge="1" parent="1" target="iThb-aG2Lzb_twxAO-k0-6">
          <mxGeometry relative="1" as="geometry">
            <mxPoint x="463.71428571428567" y="338.90714285714273" as="sourcePoint" />
          </mxGeometry>
        </mxCell>
        <mxCell id="iThb-aG2Lzb_twxAO-k0-6" value="&lt;font face=&quot;Times New Roman&quot;&gt;Norm&lt;/font&gt;" style="rounded=1;whiteSpace=wrap;html=1;fontFamily=Helvetica;fontSize=11;fontColor=default;labelBackgroundColor=default;strokeColor=default;align=center;verticalAlign=middle;" vertex="1" parent="1">
          <mxGeometry x="448.67" y="302.04999999999995" width="30" height="19" as="geometry" />
        </mxCell>
        <mxCell id="iThb-aG2Lzb_twxAO-k0-7" value="&lt;span style=&quot;font-family: &amp;quot;Times New Roman&amp;quot;;&quot;&gt;&lt;font style=&quot;font-size: 14px;&quot;&gt;`X_i^r`&lt;/font&gt;&lt;/span&gt;" style="text;strokeColor=none;align=center;fillColor=none;html=1;verticalAlign=middle;whiteSpace=wrap;rounded=0;" vertex="1" parent="1">
          <mxGeometry x="553" y="324.28" width="21.67" height="14" as="geometry" />
        </mxCell>
        <mxCell id="iThb-aG2Lzb_twxAO-k0-8" value="&lt;span style=&quot;color: rgb(0, 0, 0); font-family: &amp;quot;Times New Roman&amp;quot;; font-style: normal; font-variant-ligatures: normal; font-variant-caps: normal; font-weight: 400; letter-spacing: normal; orphans: 2; text-align: center; text-indent: 0px; text-transform: none; widows: 2; word-spacing: 0px; -webkit-text-stroke-width: 0px; white-space: normal; background-color: rgb(251, 251, 251); text-decoration-thickness: initial; text-decoration-style: initial; text-decoration-color: initial; float: none; display: inline !important;&quot;&gt;&lt;font style=&quot;font-size: 14px;&quot;&gt;`X_i^d`&lt;/font&gt;&lt;/span&gt;" style="text;whiteSpace=wrap;html=1;" vertex="1" parent="1">
          <mxGeometry x="466.84000000000003" y="314.78" width="20" height="27.5" as="geometry" />
        </mxCell>
        <mxCell id="iThb-aG2Lzb_twxAO-k0-9" style="edgeStyle=orthogonalEdgeStyle;rounded=0;orthogonalLoop=1;jettySize=auto;html=1;exitX=0.5;exitY=0;exitDx=0;exitDy=0;entryX=0.5;entryY=1;entryDx=0;entryDy=0;strokeColor=default;align=center;verticalAlign=middle;fontFamily=Helvetica;fontSize=11;fontColor=default;labelBackgroundColor=default;endArrow=blockThin;endFill=1;endSize=3;" edge="1" parent="1" source="iThb-aG2Lzb_twxAO-k0-10" target="iThb-aG2Lzb_twxAO-k0-23">
          <mxGeometry relative="1" as="geometry" />
        </mxCell>
        <mxCell id="iThb-aG2Lzb_twxAO-k0-10" value="&lt;font style=&quot;font-size: 9px;&quot; face=&quot;Times New Roman&quot;&gt;(DW)Conv&lt;/font&gt;" style="rounded=1;whiteSpace=wrap;html=1;fillColor=#dae8fc;strokeColor=#6c8ebf;" vertex="1" parent="1">
          <mxGeometry x="522" y="215.05" width="50" height="20" as="geometry" />
        </mxCell>
        <mxCell id="iThb-aG2Lzb_twxAO-k0-11" style="edgeStyle=orthogonalEdgeStyle;rounded=0;orthogonalLoop=1;jettySize=auto;html=1;exitX=0.5;exitY=0;exitDx=0;exitDy=0;entryX=0.5;entryY=1;entryDx=0;entryDy=0;strokeColor=default;align=center;verticalAlign=middle;fontFamily=Helvetica;fontSize=11;fontColor=default;labelBackgroundColor=default;endArrow=blockThin;endFill=1;endSize=3;" edge="1" parent="1" source="iThb-aG2Lzb_twxAO-k0-12" target="iThb-aG2Lzb_twxAO-k0-14">
          <mxGeometry relative="1" as="geometry" />
        </mxCell>
        <mxCell id="iThb-aG2Lzb_twxAO-k0-12" value="&lt;font style=&quot;font-size: 9px; background-color: rgb(218, 232, 252);&quot; face=&quot;Times New Roman&quot;&gt;Conv&lt;/font&gt;&lt;span style=&quot;font-size: 9px; background-color: rgb(218, 232, 252);&quot;&gt;&amp;nbsp;1`\times`1&lt;/span&gt;" style="rounded=1;whiteSpace=wrap;html=1;fillColor=#dae8fc;strokeColor=#6c8ebf;" vertex="1" parent="1">
          <mxGeometry x="440.51" y="255.54999999999998" width="46.33" height="19.5" as="geometry" />
        </mxCell>
        <mxCell id="iThb-aG2Lzb_twxAO-k0-13" style="edgeStyle=orthogonalEdgeStyle;rounded=0;orthogonalLoop=1;jettySize=auto;html=1;strokeColor=default;align=center;verticalAlign=middle;fontFamily=Helvetica;fontSize=11;fontColor=default;labelBackgroundColor=default;endArrow=blockThin;endFill=1;endSize=3;entryX=0;entryY=0.5;entryDx=0;entryDy=0;" edge="1" parent="1" source="iThb-aG2Lzb_twxAO-k0-14" target="iThb-aG2Lzb_twxAO-k0-32">
          <mxGeometry relative="1" as="geometry">
            <mxPoint x="463.6700000000001" y="63.449999999999974" as="targetPoint" />
          </mxGeometry>
        </mxCell>
        <mxCell id="iThb-aG2Lzb_twxAO-k0-14" value="&lt;font style=&quot;font-size: 9px;&quot; face=&quot;Times New Roman&quot;&gt;(DW)Conv&lt;/font&gt;" style="rounded=1;whiteSpace=wrap;html=1;fillColor=#dae8fc;strokeColor=#6c8ebf;" vertex="1" parent="1">
          <mxGeometry x="438.67" y="131.05" width="50" height="20" as="geometry" />
        </mxCell>
        <mxCell id="iThb-aG2Lzb_twxAO-k0-15" value="&lt;font style=&quot;font-size: 9px;&quot; face=&quot;Times New Roman&quot;&gt;(DW)Conv&lt;/font&gt;" style="rounded=1;whiteSpace=wrap;html=1;fillColor=#dae8fc;strokeColor=#6c8ebf;" vertex="1" parent="1">
          <mxGeometry x="584" y="215.05" width="50" height="20" as="geometry" />
        </mxCell>
        <mxCell id="iThb-aG2Lzb_twxAO-k0-16" value="" style="edgeStyle=orthogonalEdgeStyle;rounded=0;orthogonalLoop=1;jettySize=auto;html=1;strokeColor=default;align=center;verticalAlign=middle;fontFamily=Helvetica;fontSize=11;fontColor=default;labelBackgroundColor=default;endArrow=blockThin;endFill=1;endSize=3;" edge="1" parent="1" source="iThb-aG2Lzb_twxAO-k0-15" target="iThb-aG2Lzb_twxAO-k0-23">
          <mxGeometry relative="1" as="geometry">
            <Array as="points">
              <mxPoint x="609" y="191.05" />
            </Array>
          </mxGeometry>
        </mxCell>
        <mxCell id="iThb-aG2Lzb_twxAO-k0-17" style="edgeStyle=orthogonalEdgeStyle;rounded=0;orthogonalLoop=1;jettySize=auto;html=1;exitX=1;exitY=0.5;exitDx=0;exitDy=0;strokeColor=default;align=center;verticalAlign=middle;fontFamily=Helvetica;fontSize=11;fontColor=default;labelBackgroundColor=default;endArrow=blockThin;endFill=1;endSize=3;" edge="1" parent="1" source="iThb-aG2Lzb_twxAO-k0-19" target="iThb-aG2Lzb_twxAO-k0-15">
          <mxGeometry relative="1" as="geometry" />
        </mxCell>
        <mxCell id="iThb-aG2Lzb_twxAO-k0-18" style="edgeStyle=orthogonalEdgeStyle;rounded=0;orthogonalLoop=1;jettySize=auto;html=1;exitX=0.5;exitY=0;exitDx=0;exitDy=0;strokeColor=default;align=center;verticalAlign=middle;fontFamily=Helvetica;fontSize=11;fontColor=default;labelBackgroundColor=default;endArrow=blockThin;endFill=1;endSize=3;" edge="1" parent="1" source="iThb-aG2Lzb_twxAO-k0-19" target="iThb-aG2Lzb_twxAO-k0-10">
          <mxGeometry relative="1" as="geometry" />
        </mxCell>
        <mxCell id="iThb-aG2Lzb_twxAO-k0-19" value="&lt;font style=&quot;font-size: 9px; background-color: rgb(218, 232, 252);&quot; face=&quot;Times New Roman&quot;&gt;Conv&lt;/font&gt;&lt;span style=&quot;font-size: 9px; background-color: rgb(218, 232, 252);&quot;&gt;&amp;nbsp;1`\times`1&lt;/span&gt;" style="rounded=1;whiteSpace=wrap;html=1;fillColor=#dae8fc;strokeColor=#6c8ebf;" vertex="1" parent="1">
          <mxGeometry x="523.84" y="255.54999999999998" width="46.33" height="19.5" as="geometry" />
        </mxCell>
        <mxCell id="iThb-aG2Lzb_twxAO-k0-20" style="edgeStyle=orthogonalEdgeStyle;rounded=0;orthogonalLoop=1;jettySize=auto;html=1;exitX=0.5;exitY=0;exitDx=0;exitDy=0;entryX=0.5;entryY=1;entryDx=0;entryDy=0;strokeColor=default;align=center;verticalAlign=middle;fontFamily=Helvetica;fontSize=11;fontColor=default;labelBackgroundColor=default;endArrow=blockThin;endFill=1;endSize=3;" edge="1" parent="1" source="iThb-aG2Lzb_twxAO-k0-21" target="iThb-aG2Lzb_twxAO-k0-26">
          <mxGeometry relative="1" as="geometry" />
        </mxCell>
        <mxCell id="iThb-aG2Lzb_twxAO-k0-21" value="&lt;font style=&quot;font-size: 9px;&quot;&gt;&lt;font style=&quot;background-color: rgb(218, 232, 252);&quot; face=&quot;Times New Roman&quot;&gt;Conv&lt;/font&gt;&lt;span style=&quot;background-color: rgb(218, 232, 252);&quot;&gt;&amp;nbsp;1`\times`1&lt;/span&gt;&lt;/font&gt;" style="rounded=1;whiteSpace=wrap;html=1;fillColor=#dae8fc;strokeColor=#6c8ebf;" vertex="1" parent="1">
          <mxGeometry x="523.84" y="151.05" width="46.33" height="18.5" as="geometry" />
        </mxCell>
        <mxCell id="iThb-aG2Lzb_twxAO-k0-22" style="edgeStyle=orthogonalEdgeStyle;rounded=0;orthogonalLoop=1;jettySize=auto;html=1;exitX=0.5;exitY=0;exitDx=0;exitDy=0;entryX=0.5;entryY=1;entryDx=0;entryDy=0;strokeColor=default;align=center;verticalAlign=middle;fontFamily=Helvetica;fontSize=11;fontColor=default;labelBackgroundColor=default;endArrow=blockThin;endFill=1;endSize=3;" edge="1" parent="1" source="iThb-aG2Lzb_twxAO-k0-23" target="iThb-aG2Lzb_twxAO-k0-21">
          <mxGeometry relative="1" as="geometry" />
        </mxCell>
        <mxCell id="iThb-aG2Lzb_twxAO-k0-23" value="" style="ellipse;whiteSpace=wrap;html=1;aspect=fixed;fontFamily=Helvetica;fontSize=11;fontColor=default;labelBackgroundColor=default;" vertex="1" parent="1">
          <mxGeometry x="538.25" y="182.3" width="17.5" height="17.5" as="geometry" />
        </mxCell>
        <mxCell id="iThb-aG2Lzb_twxAO-k0-24" value="" style="shape=waypoint;sketch=0;fillStyle=solid;size=6;pointerEvents=1;points=[];fillColor=none;resizable=0;rotatable=0;perimeter=centerPerimeter;snapToPoint=1;fontFamily=Helvetica;fontSize=11;fontColor=default;labelBackgroundColor=default;" vertex="1" parent="1">
          <mxGeometry x="537.01" y="181.05" width="20" height="20" as="geometry" />
        </mxCell>
        <mxCell id="iThb-aG2Lzb_twxAO-k0-25" style="edgeStyle=orthogonalEdgeStyle;rounded=0;orthogonalLoop=1;jettySize=auto;html=1;exitX=0.5;exitY=0;exitDx=0;exitDy=0;entryX=0.5;entryY=1;entryDx=0;entryDy=0;strokeColor=default;align=center;verticalAlign=middle;fontFamily=Helvetica;fontSize=11;fontColor=default;labelBackgroundColor=default;endArrow=blockThin;endFill=1;endSize=3;" edge="1" parent="1" source="iThb-aG2Lzb_twxAO-k0-26" target="iThb-aG2Lzb_twxAO-k0-28">
          <mxGeometry relative="1" as="geometry" />
        </mxCell>
        <mxCell id="iThb-aG2Lzb_twxAO-k0-26" value="&lt;font style=&quot;font-size: 9px;&quot; face=&quot;Times New Roman&quot;&gt;&lt;span style=&quot;background-color: rgb(218, 232, 252);&quot;&gt;Swish&lt;/span&gt;&lt;/font&gt;" style="rounded=1;whiteSpace=wrap;html=1;fillColor=#dae8fc;strokeColor=#6c8ebf;" vertex="1" parent="1">
          <mxGeometry x="523.84" y="119.05" width="46.33" height="18.5" as="geometry" />
        </mxCell>
        <mxCell id="iThb-aG2Lzb_twxAO-k0-27" style="edgeStyle=orthogonalEdgeStyle;rounded=0;orthogonalLoop=1;jettySize=auto;html=1;exitX=0.5;exitY=0;exitDx=0;exitDy=0;entryX=0.5;entryY=1;entryDx=0;entryDy=0;strokeColor=default;align=center;verticalAlign=middle;fontFamily=Helvetica;fontSize=11;fontColor=default;labelBackgroundColor=default;endArrow=blockThin;endFill=1;endSize=3;" edge="1" parent="1" source="iThb-aG2Lzb_twxAO-k0-28" target="iThb-aG2Lzb_twxAO-k0-30">
          <mxGeometry relative="1" as="geometry" />
        </mxCell>
        <mxCell id="iThb-aG2Lzb_twxAO-k0-28" value="&lt;font style=&quot;font-size: 9px;&quot;&gt;&lt;font style=&quot;background-color: rgb(218, 232, 252);&quot; face=&quot;Times New Roman&quot;&gt;Conv&lt;/font&gt;&lt;span style=&quot;background-color: rgb(218, 232, 252);&quot;&gt;&amp;nbsp;1`\times`1&lt;/span&gt;&lt;/font&gt;" style="rounded=1;whiteSpace=wrap;html=1;fillColor=#dae8fc;strokeColor=#6c8ebf;" vertex="1" parent="1">
          <mxGeometry x="523.84" y="87.05" width="46.33" height="18.5" as="geometry" />
        </mxCell>
        <mxCell id="iThb-aG2Lzb_twxAO-k0-29" style="edgeStyle=orthogonalEdgeStyle;rounded=0;orthogonalLoop=1;jettySize=auto;html=1;exitX=0;exitY=0.5;exitDx=0;exitDy=0;entryX=1;entryY=0.5;entryDx=0;entryDy=0;strokeColor=default;align=center;verticalAlign=middle;fontFamily=Helvetica;fontSize=11;fontColor=default;labelBackgroundColor=default;endArrow=blockThin;endFill=1;endSize=3;" edge="1" parent="1" source="iThb-aG2Lzb_twxAO-k0-30" target="iThb-aG2Lzb_twxAO-k0-32">
          <mxGeometry relative="1" as="geometry" />
        </mxCell>
        <mxCell id="iThb-aG2Lzb_twxAO-k0-30" value="&lt;font style=&quot;font-size: 9px;&quot; face=&quot;Times New Roman&quot;&gt;&lt;span style=&quot;background-color: rgb(218, 232, 252);&quot;&gt;Tanh&lt;/span&gt;&lt;/font&gt;" style="rounded=1;whiteSpace=wrap;html=1;fillColor=#dae8fc;strokeColor=#6c8ebf;" vertex="1" parent="1">
          <mxGeometry x="523.85" y="57.05" width="46.33" height="18.5" as="geometry" />
        </mxCell>
        <mxCell id="iThb-aG2Lzb_twxAO-k0-31" style="edgeStyle=orthogonalEdgeStyle;rounded=0;orthogonalLoop=1;jettySize=auto;html=1;exitX=0.5;exitY=0;exitDx=0;exitDy=0;strokeColor=default;align=center;verticalAlign=middle;fontFamily=Helvetica;fontSize=11;fontColor=default;labelBackgroundColor=default;endArrow=blockThin;endFill=1;endSize=3;" edge="1" parent="1" source="iThb-aG2Lzb_twxAO-k0-32">
          <mxGeometry relative="1" as="geometry">
            <mxPoint x="497.04761904761904" y="27.00238095238096" as="targetPoint" />
          </mxGeometry>
        </mxCell>
        <mxCell id="iThb-aG2Lzb_twxAO-k0-32" value="" style="ellipse;whiteSpace=wrap;html=1;aspect=fixed;fontFamily=Helvetica;fontSize=11;fontColor=default;labelBackgroundColor=default;" vertex="1" parent="1">
          <mxGeometry x="488.08" y="56.8" width="17.5" height="17.5" as="geometry" />
        </mxCell>
        <mxCell id="iThb-aG2Lzb_twxAO-k0-33" value="" style="shape=waypoint;sketch=0;fillStyle=solid;size=6;pointerEvents=1;points=[];fillColor=none;resizable=0;rotatable=0;perimeter=centerPerimeter;snapToPoint=1;fontFamily=Helvetica;fontSize=11;fontColor=default;labelBackgroundColor=default;" vertex="1" parent="1">
          <mxGeometry x="486.84000000000003" y="55.55" width="20" height="20" as="geometry" />
        </mxCell>
        <mxCell id="iThb-aG2Lzb_twxAO-k0-34" value="" style="rounded=1;whiteSpace=wrap;html=1;fontFamily=Helvetica;fontSize=11;labelBackgroundColor=default;dashed=1;fillColor=none;strokeColor=#7999c7;strokeWidth=3;" vertex="1" parent="1">
          <mxGeometry x="395" y="47.05" width="242" height="247" as="geometry" />
        </mxCell>
      </root>
    </mxGraphModel>
  </diagram>
</mxfile>
